<?xml version="1.0" encoding="UTF-8"?>
<!DOCTYPE svg PUBLIC "-//W3C//DTD SVG 1.1//EN" "http://www.w3.org/Graphics/SVG/1.1/DTD/svg11.dtd">
<!-- Creator: CorelDRAW 2021 (64-Bit) -->
<svg xmlns="http://www.w3.org/2000/svg" xml:space="preserve" width="8.8336mm" height="8.8336mm" version="1.1" style="shape-rendering:geometricPrecision; text-rendering:geometricPrecision; image-rendering:optimizeQuality; fill-rule:evenodd; clip-rule:evenodd"
viewBox="0 0 156.1 156.1"
 xmlns:xlink="http://www.w3.org/1999/xlink"
 xmlns:xodm="http://www.corel.com/coreldraw/odm/2003">
 <defs>
  <style type="text/css">
   <![CDATA[
    .fil1 {fill:none}
    .fil0 {fill:#221E1E}
   ]]>
  </style>
   <clipPath id="id0">
    <path d="M78.05 0c43.1,0 78.05,34.94 78.05,78.05 0,43.1 -34.94,78.05 -78.05,78.05 -43.1,0 -78.05,-34.94 -78.05,-78.05 0,-43.1 34.94,-78.05 78.05,-78.05z"/>
   </clipPath>
 </defs>
 <g id="Layer_x0020_1">
  <metadata id="CorelCorpID_0Corel-Layer"/>
  <g>
  </g>
  <g style="clip-path:url(#id0)">
   <g>
    <g id="_2944451097344">
     <path class="fil0" d="M48.54 46.08c100.99,-23.53 90.99,80.29 26.76,80.29 -54.12,0 -42.82,-69.18 -42.82,-123.11 -88.95,59.56 -43.52,171.28 48.17,171.28 48.51,0 90.99,-44.53 90.99,-91 0,-39.59 -41.03,-90.99 -80.29,-90.99 -51.68,0 -42.82,-1.97 -42.82,53.53z"/>
     <path class="fil0" d="M53.89 62.13c-1.33,5.53 -18.84,48.17 26.76,48.17 38.71,0 37.03,-72.94 -26.76,-48.17z"/>
    </g>
   </g>
  </g>
  <path class="fil1" d="M78.05 0c43.1,0 78.05,34.94 78.05,78.05 0,43.1 -34.94,78.05 -78.05,78.05 -43.1,0 -78.05,-34.94 -78.05,-78.05 0,-43.1 34.94,-78.05 78.05,-78.05z"/>
 </g>
</svg>
